<?xml version="1.0" encoding="iso-8859-1"?>
<!-- Uploaded to: SVG Repo, www.svgrepo.com, Generator: SVG Repo Mixer Tools -->
<!DOCTYPE svg PUBLIC "-//W3C//DTD SVG 1.1//EN" "http://www.w3.org/Graphics/SVG/1.1/DTD/svg11.dtd">
<svg fill="#000000" height="800px" width="800px" version="1.1" id="Capa_1" xmlns="http://www.w3.org/2000/svg" xmlns:xlink="http://www.w3.org/1999/xlink" 
	 viewBox="0 0 339.634 339.634" xml:space="preserve">
<g>
	<path d="M6.651,274.655c-8.051,19.19-7.748,39.229,0.902,59.565c0.447,1.062,1.092,2.005,1.867,2.783
		c1.58,1.579,3.752,2.537,6.156,2.625c3.605,0.133,7.199-1.682,9.43-4.77c10.5-14.415,18.688-13.793,31.092-12.846
		c11.275,0.854,25.32,1.917,38.752-11.512c7.396-7.399,13.318-15.668,17.594-24.572l-60.07-60.071
		C44.174,229.793,18.174,247.206,6.651,274.655z"/>
	<path d="M334.987,3.815c-18.443-18.443-98.574,31.764-178.973,112.161c-23.898,23.899-45.096,47.753-62.639,69.995
		c-6.969-1.327-14.445,0.714-19.838,6.107c-8.66,8.658-8.664,22.704-0.004,31.363l41.83,41.829
		c8.656,8.659,22.703,8.654,31.361-0.004c5.393-5.394,7.434-12.87,6.107-19.838c22.242-17.542,46.096-38.741,69.994-62.641
		C303.225,102.392,353.432,22.261,334.987,3.815z"/>
</g>
</svg>